<?xml version="1.0" encoding="UTF-8"?>
<svg width="640" height="160" viewBox="0 0 640 160" fill="none" xmlns="http://www.w3.org/2000/svg" role="img" aria-label="Protein Grub Hub horizontal logo">
  <defs>
    <linearGradient id="g1" x1="0" y1="0" x2="1" y2="1">
      <stop offset="0%" stop-color="#22c55e"/>
      <stop offset="100%" stop-color="#16a34a"/>
    </linearGradient>
    <linearGradient id="g2" x1="0" y1="0" x2="1" y2="1">
      <stop offset="0%" stop-color="#0ea5e9"/>
      <stop offset="100%" stop-color="#0284c7"/>
    </linearGradient>
    <filter id="soft" x="-20%" y="-20%" width="140%" height="140%">
      <feDropShadow dx="0" dy="2" stdDeviation="3" flood-color="#000" flood-opacity="0.15"/>
    </filter>
  </defs>

  <!-- Icon -->
  <g transform="translate(20,20)">
    <circle cx="60" cy="60" r="54" fill="url(#g2)" filter="url(#soft)"/>
    <circle cx="60" cy="60" r="45" fill="#ffffff"/>
    <g transform="translate(60,60) rotate(-15)">
      <rect x="-26" y="-6" width="52" height="12" rx="6" fill="#0f172a" opacity="0.85"/>
      <rect x="-42" y="-10" width="12" height="22" rx="5" fill="#0f172a"/>
      <rect x="30" y="-10" width="12" height="22" rx="5" fill="#0f172a"/>
    </g>
    <path d="M93 42c-7 1-15 5-19 11-4 6-6 13-6 20 7-1 14-4 20-8 6-5 10-12 12-20-2-1-4-1-7 0z" fill="url(#g1)"/>
    <path d="M73 82c6-1 12-5 17-10" stroke="#065f46" stroke-width="2" stroke-linecap="round"/>
    <g transform="translate(28,28) rotate(35)">
      <rect x="0" y="0" width="8" height="40" rx="4" fill="#0f172a"/>
      <rect x="-6" y="-8" width="5" height="16" rx="2" fill="#0f172a"/>
      <rect x="2" y="-8" width="5" height="16" rx="2" fill="#0f172a"/>
      <rect x="10" y="-8" width="5" height="16" rx="2" fill="#0f172a"/>
    </g>
  </g>

  <!-- Wordmark -->
  <g transform="translate(160,38)">
    <text x="0" y="30" font-family="Inter, Poppins, Arial, sans-serif" font-size="32" font-weight="700" fill="#0f172a" letter-spacing="0.5">
      Protein <tspan fill="#16a34a">Grub</tspan> <tspan fill="#0284c7">Hub</tspan>
    </text>
    <text x="0" y="64" font-family="Inter, Poppins, Arial, sans-serif" font-size="14" font-weight="500" fill="#334155" letter-spacing="0.3">
      Healthy meals. High protein. Smart tracking.
    </text>
  </g>
</svg>
